<svg xmlns="http://www.w3.org/2000/svg" xmlns:xlink="http://www.w3.org/1999/xlink" width="1250" zoomAndPan="magnify" viewBox="0 0 937.5 187.499995" height="250" preserveAspectRatio="xMidYMid meet" version="1.0"><defs><g/><clipPath id="101ba27ffd"><path d="M 26.601562 7.152344 L 147 7.152344 L 147 180 L 26.601562 180 Z M 26.601562 7.152344 " clip-rule="nonzero"/></clipPath></defs><g clip-path="url(#101ba27ffd)"><path fill="#feb500" d="M 142.964844 48.597656 L 142.964844 11.097656 C 142.964844 9.027344 141.285156 7.347656 139.210938 7.347656 L 120.441406 7.347656 C 118.367188 7.347656 116.6875 9.027344 116.6875 11.097656 L 116.6875 29.847656 L 101.675781 29.847656 L 101.675781 11.097656 C 101.675781 9.027344 99.996094 7.347656 97.921875 7.347656 L 75.398438 7.347656 C 73.324219 7.347656 71.644531 9.027344 71.644531 11.097656 L 71.644531 29.847656 L 56.628906 29.847656 L 56.628906 11.097656 C 56.628906 9.027344 54.953125 7.347656 52.875 7.347656 L 34.109375 7.347656 C 32.03125 7.347656 30.355469 9.027344 30.355469 11.097656 L 30.355469 48.597656 Z M 132.007812 67.34375 L 141.015625 56.097656 L 32.300781 56.097656 L 41.3125 67.34375 Z M 128.679688 74.84375 L 44.640625 74.84375 L 26.660156 175.433594 C 26.464844 176.527344 26.761719 177.648438 27.480469 178.5 C 28.1875 179.351562 29.242188 179.84375 30.355469 179.84375 L 71.644531 179.84375 L 71.644531 134.84375 C 71.644531 126.558594 78.367188 119.84375 86.660156 119.84375 C 94.953125 119.84375 101.675781 126.558594 101.675781 134.84375 L 101.675781 179.84375 L 142.964844 179.84375 C 144.074219 179.84375 145.128906 179.351562 145.84375 178.5 C 146.558594 177.648438 146.855469 176.527344 146.664062 175.433594 Z M 128.679688 74.84375 " fill-opacity="1" fill-rule="nonzero"/></g><g fill="#ffffff" fill-opacity="1"><g transform="translate(183.071098, 148.708954)"><g><path d="M 11.15625 -110.921875 L 31.765625 -110.921875 L 65.6875 -52.203125 L 66.921875 -52.203125 L 100.859375 -110.921875 L 121.609375 -110.921875 L 121.609375 0 L 100.859375 0 L 100.859375 -54.6875 L 102.09375 -73.28125 L 100.859375 -73.28125 L 72.65625 -23.546875 L 60.109375 -23.546875 L 31.765625 -73.28125 L 30.515625 -73.28125 L 31.765625 -54.6875 L 31.765625 0 L 11.15625 0 Z M 11.15625 -110.921875 "/></g></g></g><g fill="#ffffff" fill-opacity="1"><g transform="translate(315.837263, 148.708954)"><g><path d="M 55.46875 -8.0625 L 54.21875 -8.0625 C 51.84375 -5.164062 48.976562 -2.679688 45.625 -0.609375 C 42.269531 1.453125 37.957031 2.484375 32.6875 2.484375 C 28.757812 2.484375 25.066406 1.835938 21.609375 0.546875 C 18.148438 -0.742188 15.128906 -2.523438 12.546875 -4.796875 C 9.960938 -7.066406 7.945312 -9.800781 6.5 -13 C 5.0625 -16.207031 4.34375 -19.722656 4.34375 -23.546875 C 4.34375 -27.472656 5.113281 -31.007812 6.65625 -34.15625 C 8.207031 -37.3125 10.375 -40.023438 13.15625 -42.296875 C 15.945312 -44.566406 19.226562 -46.296875 23 -47.484375 C 26.769531 -48.671875 30.878906 -49.265625 35.328125 -49.265625 C 40.285156 -49.265625 44.363281 -48.875 47.5625 -48.09375 C 50.757812 -47.320312 53.394531 -46.523438 55.46875 -45.703125 L 55.46875 -48.03125 C 55.46875 -52.050781 53.863281 -55.378906 50.65625 -58.015625 C 47.457031 -60.648438 43.484375 -61.96875 38.734375 -61.96875 C 31.710938 -61.96875 25.773438 -59.023438 20.921875 -53.140625 L 6.203125 -63.203125 C 14.253906 -73.328125 25.25 -78.390625 39.1875 -78.390625 C 50.96875 -78.390625 59.957031 -75.625 66.15625 -70.09375 C 72.351562 -64.570312 75.453125 -56.390625 75.453125 -45.546875 L 75.453125 0 L 55.46875 0 Z M 55.46875 -30.828125 C 53.09375 -31.960938 50.640625 -32.863281 48.109375 -33.53125 C 45.578125 -34.207031 42.8125 -34.546875 39.8125 -34.546875 C 34.957031 -34.546875 31.210938 -33.488281 28.578125 -31.375 C 25.941406 -29.257812 24.625 -26.648438 24.625 -23.546875 C 24.625 -20.453125 25.890625 -17.972656 28.421875 -16.109375 C 30.953125 -14.253906 33.875 -13.328125 37.1875 -13.328125 C 39.863281 -13.328125 42.335938 -13.816406 44.609375 -14.796875 C 46.890625 -15.773438 48.828125 -17.0625 50.421875 -18.65625 C 52.023438 -20.257812 53.265625 -22.117188 54.140625 -24.234375 C 55.023438 -26.359375 55.46875 -28.554688 55.46875 -30.828125 Z M 55.46875 -30.828125 "/></g></g></g><g fill="#ffffff" fill-opacity="1"><g transform="translate(398.719302, 148.708954)"><g><path d="M 19.984375 -86.90625 C 18.222656 -86.90625 16.539062 -87.238281 14.9375 -87.90625 C 13.34375 -88.582031 11.953125 -89.515625 10.765625 -90.703125 C 9.578125 -91.890625 8.644531 -93.257812 7.96875 -94.8125 C 7.300781 -96.363281 6.96875 -98.066406 6.96875 -99.921875 C 6.96875 -101.785156 7.300781 -103.488281 7.96875 -105.03125 C 8.644531 -106.582031 9.578125 -107.953125 10.765625 -109.140625 C 11.953125 -110.328125 13.34375 -111.253906 14.9375 -111.921875 C 16.539062 -112.597656 18.222656 -112.9375 19.984375 -112.9375 C 23.597656 -112.9375 26.695312 -111.671875 29.28125 -109.140625 C 31.863281 -106.609375 33.15625 -103.535156 33.15625 -99.921875 C 33.15625 -96.304688 31.863281 -93.234375 29.28125 -90.703125 C 26.695312 -88.171875 23.597656 -86.90625 19.984375 -86.90625 Z M 9.921875 0 L 9.921875 -75.90625 L 30.203125 -75.90625 L 30.203125 0 Z M 9.921875 0 "/></g></g></g><g fill="#ffffff" fill-opacity="1"><g transform="translate(438.8435, 148.708954)"><g><path d="M 27.734375 -66 L 28.96875 -66 C 31.34375 -69.820312 34.546875 -72.84375 38.578125 -75.0625 C 42.609375 -77.28125 47.203125 -78.390625 52.359375 -78.390625 C 57.109375 -78.390625 61.289062 -77.613281 64.90625 -76.0625 C 68.519531 -74.519531 71.488281 -72.328125 73.8125 -69.484375 C 76.144531 -66.640625 77.90625 -63.226562 79.09375 -59.25 C 80.28125 -55.28125 80.875 -50.867188 80.875 -46.015625 L 80.875 0 L 60.578125 0 L 60.578125 -43.53125 C 60.578125 -49.007812 59.363281 -53.0625 56.9375 -55.6875 C 54.507812 -58.320312 50.972656 -59.640625 46.328125 -59.640625 C 43.535156 -59.640625 41.078125 -59.046875 38.953125 -57.859375 C 36.835938 -56.671875 35.03125 -55.070312 33.53125 -53.0625 C 32.039062 -51.050781 30.90625 -48.675781 30.125 -45.9375 C 29.351562 -43.195312 28.96875 -40.28125 28.96875 -37.1875 L 28.96875 0 L 8.671875 0 L 8.671875 -75.90625 L 27.734375 -75.90625 Z M 27.734375 -66 "/></g></g></g><g fill="#feb500" fill-opacity="1"><g transform="translate(527.757994, 148.708954)"><g><path d="M 11.15625 0 L 11.15625 -110.921875 L 50.1875 -110.921875 C 55.457031 -110.921875 60.390625 -110.066406 64.984375 -108.359375 C 69.585938 -106.660156 73.59375 -104.257812 77 -101.15625 C 80.40625 -98.0625 83.085938 -94.367188 85.046875 -90.078125 C 87.015625 -85.796875 88 -81.070312 88 -75.90625 C 88 -70.644531 87.015625 -65.867188 85.046875 -61.578125 C 83.085938 -57.296875 80.40625 -53.601562 77 -50.5 C 73.59375 -47.40625 69.585938 -45.003906 64.984375 -43.296875 C 60.390625 -41.597656 55.457031 -40.75 50.1875 -40.75 L 32.0625 -40.75 L 32.0625 0 Z M 50.5 -60.578125 C 55.976562 -60.578125 60.109375 -62.125 62.890625 -65.21875 C 65.679688 -68.320312 67.078125 -71.882812 67.078125 -75.90625 C 67.078125 -77.875 66.738281 -79.785156 66.0625 -81.640625 C 65.394531 -83.503906 64.363281 -85.128906 62.96875 -86.515625 C 61.582031 -87.910156 59.851562 -89.019531 57.78125 -89.84375 C 55.71875 -90.675781 53.289062 -91.09375 50.5 -91.09375 L 32.0625 -91.09375 L 32.0625 -60.578125 Z M 50.5 -60.578125 "/></g></g></g><g fill="#feb500" fill-opacity="1"><g transform="translate(619.470439, 148.708954)"><g><path d="M 55.46875 -8.0625 L 54.21875 -8.0625 C 51.84375 -5.164062 48.976562 -2.679688 45.625 -0.609375 C 42.269531 1.453125 37.957031 2.484375 32.6875 2.484375 C 28.757812 2.484375 25.066406 1.835938 21.609375 0.546875 C 18.148438 -0.742188 15.128906 -2.523438 12.546875 -4.796875 C 9.960938 -7.066406 7.945312 -9.800781 6.5 -13 C 5.0625 -16.207031 4.34375 -19.722656 4.34375 -23.546875 C 4.34375 -27.472656 5.113281 -31.007812 6.65625 -34.15625 C 8.207031 -37.3125 10.375 -40.023438 13.15625 -42.296875 C 15.945312 -44.566406 19.226562 -46.296875 23 -47.484375 C 26.769531 -48.671875 30.878906 -49.265625 35.328125 -49.265625 C 40.285156 -49.265625 44.363281 -48.875 47.5625 -48.09375 C 50.757812 -47.320312 53.394531 -46.523438 55.46875 -45.703125 L 55.46875 -48.03125 C 55.46875 -52.050781 53.863281 -55.378906 50.65625 -58.015625 C 47.457031 -60.648438 43.484375 -61.96875 38.734375 -61.96875 C 31.710938 -61.96875 25.773438 -59.023438 20.921875 -53.140625 L 6.203125 -63.203125 C 14.253906 -73.328125 25.25 -78.390625 39.1875 -78.390625 C 50.96875 -78.390625 59.957031 -75.625 66.15625 -70.09375 C 72.351562 -64.570312 75.453125 -56.390625 75.453125 -45.546875 L 75.453125 0 L 55.46875 0 Z M 55.46875 -30.828125 C 53.09375 -31.960938 50.640625 -32.863281 48.109375 -33.53125 C 45.578125 -34.207031 42.8125 -34.546875 39.8125 -34.546875 C 34.957031 -34.546875 31.210938 -33.488281 28.578125 -31.375 C 25.941406 -29.257812 24.625 -26.648438 24.625 -23.546875 C 24.625 -20.453125 25.890625 -17.972656 28.421875 -16.109375 C 30.953125 -14.253906 33.875 -13.328125 37.1875 -13.328125 C 39.863281 -13.328125 42.335938 -13.816406 44.609375 -14.796875 C 46.890625 -15.773438 48.828125 -17.0625 50.421875 -18.65625 C 52.023438 -20.257812 53.265625 -22.117188 54.140625 -24.234375 C 55.023438 -26.359375 55.46875 -28.554688 55.46875 -30.828125 Z M 55.46875 -30.828125 "/></g></g></g><g fill="#feb500" fill-opacity="1"><g transform="translate(702.352465, 148.708954)"><g><path d="M 27.734375 -66 L 28.96875 -66 C 31.34375 -69.820312 34.546875 -72.84375 38.578125 -75.0625 C 42.609375 -77.28125 47.203125 -78.390625 52.359375 -78.390625 C 57.109375 -78.390625 61.289062 -77.613281 64.90625 -76.0625 C 68.519531 -74.519531 71.488281 -72.328125 73.8125 -69.484375 C 76.144531 -66.640625 77.90625 -63.226562 79.09375 -59.25 C 80.28125 -55.28125 80.875 -50.867188 80.875 -46.015625 L 80.875 0 L 60.578125 0 L 60.578125 -43.53125 C 60.578125 -49.007812 59.363281 -53.0625 56.9375 -55.6875 C 54.507812 -58.320312 50.972656 -59.640625 46.328125 -59.640625 C 43.535156 -59.640625 41.078125 -59.046875 38.953125 -57.859375 C 36.835938 -56.671875 35.03125 -55.070312 33.53125 -53.0625 C 32.039062 -51.050781 30.90625 -48.675781 30.125 -45.9375 C 29.351562 -43.195312 28.96875 -40.28125 28.96875 -37.1875 L 28.96875 0 L 8.671875 0 L 8.671875 -75.90625 L 27.734375 -75.90625 Z M 27.734375 -66 "/></g></g></g><g fill="#feb500" fill-opacity="1"><g transform="translate(791.276357, 148.708954)"><g><path d="M 80.5625 -18.28125 C 77.050781 -12.082031 72.320312 -7.070312 66.375 -3.25 C 60.4375 0.570312 53.1875 2.484375 44.625 2.484375 C 38.832031 2.484375 33.484375 1.476562 28.578125 -0.53125 C 23.671875 -2.550781 19.410156 -5.367188 15.796875 -8.984375 C 12.179688 -12.597656 9.367188 -16.859375 7.359375 -21.765625 C 5.347656 -26.671875 4.34375 -32.066406 4.34375 -37.953125 C 4.34375 -43.429688 5.320312 -48.625 7.28125 -53.53125 C 9.238281 -58.4375 11.972656 -62.722656 15.484375 -66.390625 C 19.003906 -70.054688 23.164062 -72.972656 27.96875 -75.140625 C 32.769531 -77.304688 38.0625 -78.390625 43.84375 -78.390625 C 49.9375 -78.390625 55.359375 -77.378906 60.109375 -75.359375 C 64.859375 -73.347656 68.832031 -70.5625 72.03125 -67 C 75.238281 -63.4375 77.664062 -59.226562 79.3125 -54.375 C 80.96875 -49.519531 81.796875 -44.253906 81.796875 -38.578125 C 81.796875 -37.847656 81.796875 -37.226562 81.796875 -36.71875 C 81.691406 -36.09375 81.640625 -35.523438 81.640625 -35.015625 C 81.535156 -34.492188 81.484375 -33.925781 81.484375 -33.3125 L 24.328125 -33.3125 C 24.734375 -30.207031 25.582031 -27.546875 26.875 -25.328125 C 28.164062 -23.109375 29.765625 -21.25 31.671875 -19.75 C 33.585938 -18.25 35.679688 -17.160156 37.953125 -16.484375 C 40.222656 -15.816406 42.546875 -15.484375 44.921875 -15.484375 C 49.578125 -15.484375 53.425781 -16.539062 56.46875 -18.65625 C 59.519531 -20.78125 61.921875 -23.441406 63.671875 -26.640625 Z M 62.125 -47.71875 C 62.019531 -49.0625 61.578125 -50.554688 60.796875 -52.203125 C 60.023438 -53.859375 58.890625 -55.410156 57.390625 -56.859375 C 55.898438 -58.304688 54.039062 -59.492188 51.8125 -60.421875 C 49.59375 -61.347656 46.9375 -61.8125 43.84375 -61.8125 C 39.507812 -61.8125 35.6875 -60.570312 32.375 -58.09375 C 29.070312 -55.613281 26.75 -52.15625 25.40625 -47.71875 Z M 62.125 -47.71875 "/></g></g></g><g fill="#feb500" fill-opacity="1"><g transform="translate(877.411696, 148.708954)"><g><path d="M 8.671875 0 L 8.671875 -110.921875 L 28.96875 -110.921875 L 28.96875 0 Z M 8.671875 0 "/></g></g></g></svg>